<svg width="58.106750" height="20.000000" viewBox="0 0 58.1068 20" fill="none" xmlns="http://www.w3.org/2000/svg" xmlns:xlink="http://www.w3.org/1999/xlink">
	<desc>
			Created with Pixso.
	</desc>
	<defs>
		<clipPath id="clip10_2">
			<rect id="pixer-logo" width="58.106728" height="20.000000" fill="white" fill-opacity="0"/>
		</clipPath>
	</defs>
	<rect id="pixer-logo" width="58.106728" height="20.000000" fill="#FFFFFF" fill-opacity="0"/>
	<g clip-path="url(#clip10_2)">
		<path id="Vector" d="M0 19.56L0 0.21L6.7 0.21C7.53 0.21 8.36 0.35 9.15 0.64C9.89 0.92 10.57 1.33 11.16 1.86C11.76 2.4 12.23 3.06 12.55 3.81C12.87 4.55 13.03 5.35 13.02 6.16C13.03 6.96 12.87 7.75 12.55 8.49C12.23 9.23 11.75 9.88 11.16 10.43C10.57 10.95 9.89 11.37 9.15 11.64C8.36 11.93 7.53 12.08 6.7 12.07L3.05 12.07L3.05 19.56L0 19.56ZM6.78 9.16C7.24 9.17 7.7 9.08 8.13 8.9C8.51 8.74 8.85 8.51 9.13 8.21C9.4 7.93 9.61 7.6 9.75 7.24C9.89 6.9 9.97 6.53 9.97 6.16C9.97 5.39 9.67 4.65 9.13 4.09C8.82 3.78 8.46 3.54 8.05 3.37C7.65 3.21 7.22 3.13 6.78 3.13L3.05 3.13L3.05 9.16L6.78 9.16Z" fill="#191919" fill-opacity="1.000000" fill-rule="nonzero"/>
		<path id="Vector" d="M15.4 6.32L15.4 19.56L18.4 19.56L18.4 6.32L15.4 6.32Z" fill="#191919" fill-opacity="1.000000" fill-rule="nonzero"/>
		<path id="Vector" d="M18.91 2.02C18.91 2.28 18.86 2.55 18.76 2.79C18.66 3.04 18.51 3.26 18.33 3.45C18.14 3.64 17.92 3.8 17.68 3.9C17.43 4 17.17 4.05 16.91 4.05L16.91 0C17.17 -0.01 17.43 0.04 17.68 0.14C17.92 0.25 18.14 0.4 18.33 0.59C18.51 0.78 18.66 1 18.76 1.25C18.86 1.49 18.91 1.75 18.91 2.02Z" fill="#35AF39" fill-opacity="1.000000" fill-rule="nonzero"/>
		<path id="Vector" d="M16.9 0L16.9 4.05C16.63 4.05 16.37 4.01 16.12 3.9C15.87 3.8 15.65 3.65 15.46 3.45C15.27 3.27 15.12 3.04 15.02 2.8C14.92 2.55 14.87 2.29 14.88 2.02C14.87 1.75 14.92 1.49 15.02 1.25C15.12 1 15.27 0.78 15.46 0.59C15.65 0.4 15.87 0.24 16.12 0.14C16.37 0.04 16.64 -0.01 16.9 0Z" fill="#00BAFC" fill-opacity="1.000000" fill-rule="nonzero"/>
		<path id="Vector" d="M24.99 12.83L20.43 6.32L23.91 6.32L26.78 10.51L26.86 10.51L29.53 6.32L33.15 6.32L28.53 12.83L33.23 19.56L29.67 19.56L26.81 15.24L26.72 15.24L23.88 19.56L20.35 19.56L24.99 12.83Z" fill="#191919" fill-opacity="1.000000" fill-rule="nonzero"/>
		<path id="Vector" d="M46.83 16.4C46.26 17.44 45.44 18.32 44.45 18.97C43.43 19.65 42.17 20 40.67 20C39.73 20.01 38.8 19.83 37.93 19.47C37.11 19.13 36.37 18.63 35.75 18C35.13 17.36 34.64 16.6 34.32 15.77C33.97 14.87 33.79 13.91 33.81 12.94C33.8 12.02 33.96 11.09 34.29 10.23C34.6 9.4 35.06 8.64 35.66 7.98C36.28 7.31 37.03 6.78 37.87 6.42C38.71 6.05 39.62 5.87 40.53 5.89C41.56 5.89 42.47 6.06 43.28 6.4C44.05 6.73 44.75 7.22 45.32 7.83C45.89 8.48 46.33 9.23 46.6 10.05C46.91 10.96 47.06 11.92 47.05 12.89L47.05 13.13C47.03 13.21 47.02 13.29 47.02 13.37C47 13.44 46.99 13.51 46.99 13.59L36.81 13.59C36.84 14.16 37 14.72 37.26 15.24C37.5 15.68 37.81 16.07 38.2 16.4C38.56 16.7 38.98 16.93 39.43 17.07C39.85 17.21 40.3 17.29 40.75 17.29C41.61 17.29 42.33 17.08 42.89 16.67C43.44 16.25 43.91 15.73 44.26 15.13L46.83 16.4ZM44.05 11.29C44 10.98 43.91 10.68 43.79 10.39C43.65 10.04 43.44 9.73 43.17 9.47C42.86 9.17 42.49 8.92 42.09 8.75C41.65 8.56 41.11 8.46 40.48 8.46C39.62 8.46 38.87 8.71 38.25 9.23C37.63 9.74 37.21 10.43 36.99 11.29L44.05 11.29Z" fill="#191919" fill-opacity="1.000000" fill-rule="nonzero"/>
		<path id="Vector" d="M49.32 6.32L52.15 6.32L52.15 8.32L52.31 8.32C52.48 7.97 52.71 7.65 52.98 7.36C53.26 7.07 53.58 6.81 53.93 6.6C54.28 6.39 54.65 6.22 55.04 6.09C55.4 5.96 55.77 5.89 56.16 5.89C56.53 5.88 56.9 5.92 57.26 6.01C57.56 6.09 57.84 6.2 58.1 6.35L57.24 9.08C57.03 8.98 56.8 8.91 56.58 8.87C56.29 8.82 55.99 8.8 55.7 8.81C55.23 8.8 54.78 8.9 54.36 9.11C53.95 9.3 53.59 9.58 53.29 9.92C52.98 10.28 52.73 10.69 52.58 11.14C52.4 11.62 52.32 12.13 52.32 12.64L52.32 19.56L49.32 19.56L49.32 6.32Z" fill="#191919" fill-opacity="1.000000" fill-rule="nonzero"/>
	</g>
</svg>
